<svg width="17" height="17" viewBox="0 0 17 17" fill="none" xmlns="http://www.w3.org/2000/svg">
<path d="M4.73096 16.1641C5.89841 16.1674 7.01865 15.6962 7.84211 14.8557L10.1576 12.5038C10.4866 12.1697 10.4866 11.6279 10.1576 11.2937C9.82858 10.9596 9.29516 10.9596 8.96616 11.2937L6.65069 13.6455C5.97138 14.3762 4.95474 14.6742 3.99661 14.4234C3.03847 14.1725 2.29027 13.4126 2.04333 12.4394C1.79638 11.4662 2.08971 10.4336 2.80912 9.74366L5.12459 7.39184C5.33742 7.17567 5.42053 6.8606 5.34263 6.56531C5.26473 6.27002 5.03765 6.03937 4.74693 5.96025C4.4562 5.88113 4.146 5.96555 3.93318 6.18172L1.61771 8.53354C0.359613 9.81236 -0.0163656 11.7349 0.665033 13.405C1.34643 15.0751 2.95107 16.164 4.73096 16.1641Z" fill="#EF8432"/>
<path d="M14.7949 1.47167C13.0751 -0.271683 10.2904 -0.271683 8.57054 1.47167L6.25507 3.82349C6.04224 4.03965 5.95913 4.35472 6.03703 4.65001C6.11493 4.9453 6.34201 5.17595 6.63273 5.25507C6.92346 5.3342 7.23366 5.24977 7.44648 5.03361L9.76195 2.68178C10.8311 1.65634 12.5094 1.68077 13.5493 2.73691C14.5891 3.79305 14.6131 5.4977 13.6035 6.58367L11.2881 8.93549C11.0752 9.15166 10.9921 9.46673 11.07 9.76202C11.1479 10.0573 11.375 10.288 11.6657 10.3671C11.9564 10.4462 12.2666 10.3618 12.4795 10.1456L14.7949 7.79379C16.5113 6.04697 16.5113 3.21849 14.7949 1.47167Z" fill="#EF8432"/>
<path d="M11.13 5.19395C10.9721 5.03336 10.7578 4.94313 10.5343 4.94313C10.3109 4.94313 10.0966 5.03336 9.93862 5.19395L5.28241 9.92325C5.06959 10.1394 4.98647 10.4545 5.06437 10.7498C5.14227 11.0451 5.36935 11.2757 5.66008 11.3548C5.9508 11.434 6.261 11.3495 6.47383 11.1334L11.13 6.40407C11.2881 6.24366 11.377 6.02599 11.377 5.79901C11.377 5.57203 11.2881 5.35436 11.13 5.19395Z" fill="#EF8432"/>
</svg>
