<svg width="14" height="17" viewBox="0 0 14 17" fill="none" xmlns="http://www.w3.org/2000/svg">
<path d="M12.0347 12.1641C12.0347 11.7753 12.3629 11.4975 12.7458 11.4975C13.1287 11.4975 13.4568 11.7753 13.4568 12.1641V13.3864C13.4568 14.8864 12.1988 16.1641 10.722 16.1641H3.06443C1.53292 16.1641 0.32959 14.8864 0.32959 13.3864V12.1641C0.32959 11.7753 0.657771 11.4975 1.04065 11.4975C1.42353 11.4975 1.69701 11.7753 1.69701 12.1641V13.3864C1.69701 14.1086 2.29868 14.7197 3.06443 14.7197H10.722C11.433 14.7197 12.0347 14.1086 12.0347 13.3864V12.1641Z" fill="#EF8432"/>
<path d="M2.24393 8.44193C1.97045 8.16415 1.97045 7.71971 2.24393 7.44193C2.51742 7.16415 2.95499 7.16415 3.22847 7.44193L6.1821 10.4419V0.886376C6.1821 0.497487 6.51028 0.164154 6.89316 0.164154C7.27604 0.164154 7.54952 0.497487 7.54952 0.886376V10.4419L10.5032 7.44193C10.7766 7.16415 11.2142 7.16415 11.4877 7.44193C11.7612 7.71971 11.7612 8.16415 11.4877 8.44193L7.38543 12.6086C7.11195 12.8864 6.67438 12.8864 6.40089 12.6086L2.24393 8.44193Z" fill="#EF8432"/>
</svg>
